# xmcd
#
# Track frame offsets:
#	150
#	8757
#	23087
#	36282
#	49922
#	61512
#	71632
#	80755
#	92492
#	102240
#	115092
#	125897
#
# Disc length: 1789 seconds
#
# Revision: 1
# Processed by: cddbd v1.5.1PL0 Copyright (c) Steve Scherf et al.
# Submitted via: audiograbber 1.83.01
#
DISCID=9806fb0c
DTITLE=Oak Ridge Boys - The Sensational
DYEAR=1900
DGENRE=Gospel
TTITLE0=Somebody Loves Me
TTITLE1=I Am A Pilgram
TTITLE2=There's A Light Guiding Me
TTITLE3=Land of Beulah
TTITLE4=I Want To Do Thy Will, Oh Lord
TTITLE5=Golden Hills Ahead
TTITLE6=Shine, Shine Down On Me
TTITLE7=Just A Closer Walk With Thee
TTITLE8=I Feel Might Close To Heaven On My Knees
TTITLE9=Life's Railway To Heaven
TTITLE10=Angel Band
TTITLE11=There's A Higher Power
EXTD=
EXTT0=
EXTT1=
EXTT2=
EXTT3=
EXTT4=
EXTT5=
EXTT6=
EXTT7=
EXTT8=
EXTT9=
EXTT10=
EXTT11=
PLAYORDER=
